<svg width="42" height="42" viewBox="0 0 42 42" fill="none" xmlns="http://www.w3.org/2000/svg">
<path d="M15.8387 37.7742V38.2903C15.8387 38.8065 15.6452 39.3226 15.2581 39.6452L13.9032 41H28.0968L26.7419 39.6452C26.3548 39.2581 26.1613 38.8065 26.1613 38.2903V35.1935M39.0645 35.1935C40.1613 35.1935 41 34.3548 41 33.2581V8.09677C41 7 40.1613 6.16129 39.0645 6.16129M2.93548 6.16129C1.83871 6.16129 1 7 1 8.09677V33.2581C1 34.3548 1.83871 35.1935 2.93548 35.1935H27.4516M20.3548 30.0323H1M41 30.0323H36.4839M32.2903 37.9677L34.0968 36.4839M36.4839 26.1613V1.64516C36.4839 1.25806 36.2258 1 35.8387 1H6.16129C5.77419 1 5.51613 1.25806 5.51613 1.64516V26.1613M5.51613 7.45161H36.4839M8.74194 4.22581H10.0323M11.9677 4.22581H13.2581M15.1935 4.22581H16.4839M10.6774 19.7097H11.9677M10.6774 22.2903H11.9677M10.6774 24.871H11.9677M13.2581 24.871H14.5484M15.8387 24.871H17.129M15.8387 22.2903H17.129M13.2581 19.7097H14.5484M15.8387 19.7097H17.129M20.3548 19.7097L22.0323 25.2581L33.9677 40.0323C34.871 41.129 36.4194 41.2581 37.5161 40.4194C38.5484 39.5161 38.7419 37.9677 37.8387 36.9355L25.9032 22.7419L20.3548 19.7097ZM11.3226 11.3226H30.6774V15.8387H11.3226V11.3226Z" stroke="#163F59" stroke-width="1.5" stroke-miterlimit="10" stroke-linecap="round" stroke-linejoin="round"/>
</svg>
