<svg width="42" height="42" viewBox="0 0 42 42" fill="none" xmlns="http://www.w3.org/2000/svg">
<path d="M6.80645 26.8065V28.7419C6.80645 29.129 7.06452 29.3871 7.45161 29.3871H8.35484C8.6129 29.3871 8.87097 29.5161 8.93548 29.7742L10.3548 33.1935C10.4839 33.4516 10.4194 33.7097 10.2258 33.9032L9.58065 34.5484C9.32258 34.8065 9.32258 35.1935 9.58065 35.4516L12.2903 38.1613C12.5484 38.4194 12.9355 38.4194 13.1935 38.1613L13.8387 37.5161C14.0323 37.3226 14.2903 37.2581 14.5484 37.3871L17.9677 38.8064C18.2258 38.9355 18.3548 39.129 18.3548 39.3871V40.3548C18.3548 40.7419 18.6129 41 19 41H22.871C23.2581 41 23.5161 40.7419 23.5161 40.3548V39.4516C23.5161 39.1935 23.6452 38.9355 23.9032 38.871L27.3226 37.4516C27.5806 37.3226 27.8387 37.3871 28.0323 37.5806L28.6774 38.2258C28.9355 38.4839 29.3226 38.4839 29.5806 38.2258L32.2903 35.5161C32.5484 35.2581 32.5484 34.871 32.2903 34.6129L31.6452 33.9677C31.4516 33.7742 31.3871 33.5161 31.5161 33.2581L32.9355 29.8387C33.0645 29.5806 33.2581 29.4516 33.5161 29.4516H34.5484C34.9355 29.4516 35.1935 29.1935 35.1935 28.8064V26.871M27.4516 26.8065C27.4516 30.3548 24.5484 33.2581 21 33.2581C17.4516 33.2581 14.5484 30.3548 14.5484 26.8065M37.7742 34.5484H39.7097C40.4194 34.5484 41 33.9677 41 33.2581V2.29032C41 1.58065 40.4194 1 39.7097 1H2.29032C1.58065 1 1 1.58065 1 2.29032V33.2581C1 33.9677 1.58065 34.5484 2.29032 34.5484H4.22581M1 7.45161H41M4.22581 4.22581H5.51613M7.45161 4.22581H8.74194M10.6774 4.22581H11.9677M4.22581 11.9677H5.51613M8.09677 11.9677H15.1935M4.22581 18.4194H5.51613M8.09677 18.4194H15.1935M10.0323 15.1935H17.129M10.0323 21.6452H17.129M21 15.1935H33.9032M21 21.6452H33.9032" stroke="#163F59" stroke-width="1.5" stroke-miterlimit="10" stroke-linecap="round" stroke-linejoin="round"/>
</svg>
