<svg width="42" height="42" viewBox="0 0 42 42" fill="none" xmlns="http://www.w3.org/2000/svg">
<path d="M1 24.2258C5.96774 24.2258 10.0323 28.2903 10.0323 33.2581C10.5484 32.6774 11.1935 32.2258 11.9677 31.9032M41 24.2258C36.0323 24.2258 31.9677 28.2903 31.9677 33.2581C31.4516 32.6774 30.8065 32.2258 30.0323 31.9032M14.5484 39.7097C14.5484 37.9032 13.129 36.4839 11.3226 36.4839C10.4839 36.4839 9.70968 36.8064 9.12903 37.3871C8.41935 35 6.16129 33.2581 3.58065 33.2581C2.67742 33.2581 1.77419 33.4516 1 33.8387M27.4516 39.7097C27.4516 37.9032 28.871 36.4839 30.6774 36.4839C31.5161 36.4839 32.2903 36.8064 32.871 37.3871C33.5806 35 35.8387 33.2581 38.4194 33.2581C39.3226 33.2581 40.2258 33.4516 41 33.8387M13.9677 41C15.1935 38.3548 17.9032 36.4839 21 36.4839C24.0968 36.4839 26.8065 38.3548 28.0323 41M22.9355 31.3226L23.5806 29.3871M18.4194 29.3871L19.0645 31.3226M13.9032 18.6129L10.6774 21.7742C9.96774 22.4839 9.90323 23.5806 10.4839 24.3548L13.9032 28.8064M28.0968 18.6129L31.3871 21.7097C32.0968 22.4194 32.1613 23.5161 31.5806 24.2903L28.0968 28.7419M19.0645 4.87097C19.0645 4.87097 19.7097 5.06452 20.6129 5.12903C22.0323 5.19355 23.4516 4.74194 24.5484 3.83871C24.6774 3.77419 24.7419 3.64516 24.871 3.58065M24.2258 13.5806C24.2258 15.1841 22.7816 16.4839 21 16.4839C19.2184 16.4839 17.7742 15.1841 17.7742 13.5806C17.7742 11.9772 19.2184 10.6774 21 10.6774C22.7816 10.6774 24.2258 11.9772 24.2258 13.5806ZM23.6452 2.16129L22.8065 1.58065C21.7097 0.806452 20.2258 0.806452 19.129 1.58065L18.2903 2.16129C13.7742 5.32258 11.7097 11.0645 13.2581 16.4194L16.4839 27.4516C16.4839 27.4516 17.7742 29.3871 21 29.3871C24.2258 29.3871 25.5161 27.4516 25.5161 27.4516L28.7419 16.4194C30.2903 11.0645 28.2258 5.32258 23.6452 2.16129Z" stroke="#163F59" stroke-width="1.5" stroke-miterlimit="10" stroke-linecap="round" stroke-linejoin="round"/>
</svg>
