<svg width="22" height="22" viewBox="0 0 22 22" fill="none" xmlns="http://www.w3.org/2000/svg">
<path d="M20.4994 15.5995V18.535C20.5005 18.8075 20.4446 19.0773 20.3352 19.327C20.2258 19.5767 20.0653 19.8008 19.8641 19.9851C19.6629 20.1693 19.4254 20.3095 19.1667 20.3969C18.908 20.4842 18.634 20.5166 18.362 20.4921C15.345 20.1649 12.4469 19.136 9.90068 17.488C7.53173 15.9857 5.52328 13.9812 4.01795 11.617C2.36096 9.06421 1.32979 6.15783 1.00796 3.13325C0.983457 2.86266 1.01568 2.58994 1.10257 2.33246C1.18947 2.07498 1.32913 1.83838 1.51266 1.63771C1.6962 1.43705 1.91959 1.27673 2.16861 1.16695C2.41763 1.05718 2.68683 1.00035 2.95906 1.00009H5.90043C6.37625 0.995421 6.83754 1.16358 7.19832 1.47324C7.55909 1.78289 7.79474 2.21291 7.86134 2.68314C7.98548 3.62257 8.21572 4.54498 8.54766 5.43276C8.67957 5.78299 8.70812 6.16362 8.62992 6.52955C8.55173 6.89548 8.37006 7.23137 8.10645 7.49742L6.86127 8.74013C8.257 11.1899 10.2894 13.2182 12.744 14.6112L13.9892 13.3685C14.2558 13.1054 14.5923 12.9241 14.959 12.8461C15.3256 12.768 15.707 12.7965 16.0579 12.9282C16.9475 13.2594 17.8717 13.4892 18.813 13.6131C19.2893 13.6802 19.7243 13.9196 20.0352 14.2858C20.3461 14.6521 20.5113 15.1196 20.4994 15.5995Z" stroke="#869AA9" stroke-width="1.2"/>
</svg>
